<?xml version="1.0" encoding="UTF-8" standalone="no"?>
<!-- Created with Inkscape (http://www.inkscape.org/) -->

<svg
   width="512mm"
   height="512mm"
   viewBox="0 0 512 512"
   version="1.1"
   id="svg1"
   inkscape:version="1.4.3 (0d15f75, 2025-12-25)"
   sodipodi:docname="favicon.svg"
   xmlns:inkscape="http://www.inkscape.org/namespaces/inkscape"
   xmlns:sodipodi="http://sodipodi.sourceforge.net/DTD/sodipodi-0.dtd"
   xmlns="http://www.w3.org/2000/svg"
   xmlns:svg="http://www.w3.org/2000/svg">
  <sodipodi:namedview
     id="namedview1"
     pagecolor="#505050"
     bordercolor="#ffffff"
     borderopacity="1"
     inkscape:showpageshadow="0"
     inkscape:pageopacity="0"
     inkscape:pagecheckerboard="1"
     inkscape:deskcolor="#505050"
     inkscape:document-units="mm"
     inkscape:zoom="0.36756309"
     inkscape:cx="1379.355"
     inkscape:cy="891.00349"
     inkscape:window-width="2560"
     inkscape:window-height="1369"
     inkscape:window-x="-8"
     inkscape:window-y="-8"
     inkscape:window-maximized="1"
     inkscape:current-layer="layer1" />
  <defs
     id="defs1" />
  <g
     inkscape:label="Warstwa 1"
     inkscape:groupmode="layer"
     id="layer1">
    <path
       style="fill:#247ced;fill-opacity:1;stroke-width:9.00338"
       d="m 109.72212,401.2338 0.55641,-153.19562 298.36854,-109.87837 -228.49029,128.36726 -7.20984,82.93709 z"
       id="path1" />
    <path
       style="fill:#eb4832;fill-opacity:1;stroke-width:9.37906"
       d="M 207.60474,317.15843 V 277.56181 L 440.88204,123.51462 102.10251,221.69275 0.11717554,170.16264 511.80274,93.139027 312.52104,324.20983 237.49722,286.78286 Z"
       id="path2" />
    <path
       style="fill:#247ced;fill-opacity:1;stroke-width:9.37906"
       d="m 180.06541,266.43347 -0.41272,77.66882 -9.9466,7.67082 z"
       id="path3" />
    <path
       style="fill:#247ced;fill-opacity:1;stroke-width:9.40445"
       d="m 179.60957,343.72496 0.11059,5.25722 -69.96336,73.36967 v -33.4952 z"
       id="path4" />
    <path
       style="fill:#247ced;fill-opacity:1;stroke-width:9.00338"
       d="m 109.72212,401.2338 0.55641,-153.19562 298.36854,-109.87837 -228.49029,128.36726 -7.20984,82.93709 z"
       id="path5" />
    <path
       style="fill:#eb4832;fill-opacity:1;stroke-width:9.37906"
       d="M 207.60474,317.15843 V 277.56181 L 440.88204,123.51462 102.10251,221.69275 0.11717554,170.16264 511.80274,93.139027 312.52104,324.20983 237.49722,286.78286 Z"
       id="path6" />
    <path
       style="fill:#247ced;fill-opacity:1;stroke-width:9.37906"
       d="m 180.06541,266.43347 -0.41272,77.66882 -9.9466,7.67082 z"
       id="path7" />
    <path
       style="fill:#247ced;fill-opacity:1;stroke-width:9.40445"
       d="m 179.60957,343.72496 0.11059,5.25722 -69.96336,73.36967 v -33.4952 z"
       id="path8" />
  </g>
</svg>
